<?xml version="1.0" standalone="no"?>
<!DOCTYPE svg PUBLIC "-//W3C//DTD SVG 20010904//EN"
 "http://www.w3.org/TR/2001/REC-SVG-20010904/DTD/svg10.dtd">
<svg version="1.0" xmlns="http://www.w3.org/2000/svg"
 width="400.000000pt" height="400.000000pt" viewBox="0 0 400.000000 400.000000"
 preserveAspectRatio="xMidYMid meet">
<g transform="translate(0.000000, 400.000000) scale(0.100000,-0.100000)"
fill="#60DFE8" stroke="none">
<path d="M2707 3041 l-688 -329 -39 19 c-48 23 -152 25 -203 4 -50 -21 -93
-60 -125 -114 -23 -39 -27 -57 -27 -121 0 -64 4 -82 27 -121 52 -89 122 -129
223 -129 70 0 117 16 164 56 37 31 76 96 86 140 6 30 21 39 383 211 l377 180
70 -35 c135 -67 230 -146 269 -221 22 -42 20 -116 -5 -168 -64 -132 -333 -276
-650 -347 -181 -40 -343 -56 -569 -56 -398 0 -721 66 -983 203 -342 178 -342
396 0 574 241 126 579 201 909 204 l134 1 225 106 c124 59 221 110 217 113 -4
4 -76 15 -161 24 -193 22 -616 16 -781 -10 -525 -82 -889 -272 -1016 -530
l-39 -79 0 -741 0 -741 39 -79 c134 -271 552 -475 1106 -539 178 -21 522 -21
700 0 554 64 972 268 1106 539 l39 79 0 740 0 741 -31 65 c-39 83 -116 175
-196 236 -35 26 -67 51 -72 55 -6 5 61 42 150 85 87 42 160 77 162 78 3 3
-107 236 -110 235 -2 0 -313 -148 -691 -328z m-1890 -1018 c83 -53 225 -118
336 -154 l97 -31 0 -489 0 -489 -57 21 c-207 77 -349 173 -411 278 l-27 46 -3
428 c-2 235 -1 427 2 427 3 0 31 -16 63 -37z m2431 -390 l-3 -428 -27 -46
c-62 -105 -204 -201 -410 -278 l-58 -21 0 489 0 489 100 32 c103 33 289 120
350 164 19 14 39 25 43 26 5 0 7 -192 5 -427z m-1558 127 c187 -19 548 -12
763 16 l47 7 0 -491 0 -490 -27 -6 c-245 -50 -701 -50 -945 0 l-28 6 0 490 0
491 48 -7 c26 -3 90 -10 142 -16z"/>
</g>
</svg>
